<?xml version="1.0" encoding="UTF-8"?>
<svg id="Layer_1" data-name="Layer 1" xmlns="http://www.w3.org/2000/svg" viewBox="0 0 563.3 357.38">
  <path d="M315.71,182.85h-8.09c-2.77,0-4.26-1.49-4.26-4.26V31.7c0-5.54,2.98-8.52,8.52-8.52h38.96c31.08,0,56.2,25.33,56.2,56.42,0,17.46-7.88,33.21-20.44,43.64-1.92,1.7-2.34,3.41-1.28,5.75l22.35,46.62c3.19,6.39-7.24,6.81-7.24,6.81"/>
  <path d="M431.1,23.18h115.6c3.62,0,4.68,2.55,2.13,5.32l-68.55,70.47c-1.92,1.92-2.13,3.83-.21,5.96l68.98,72.6c2.55,2.77,1.28,5.32-2.34,5.32h-115.6c-5.54,0-8.52-2.98-8.52-8.52V31.7c0-5.54,2.98-8.52,8.52-8.52Z"/>
  <path d="M10.43,197.93l58.54,63.02c1.92,1.92,4.04,1.92,5.96,0l58.54-63.02c5.32-5.75,10.43-3.62,10.43,4.04v144.77c0,5.54-2.98,8.52-8.52,8.52H8.52c-5.54,0-8.52-2.98-8.52-8.52v-144.77c0-7.66,5.11-9.79,10.43-4.04Z"/>
  <path d="M253.54,275.42c0-28.48,13.58-53.92,36.09-68.65-12.82-8.39-28.53-13.31-46.3-13.31-48.96,0-82.39,37.26-82.39,81.96s33.42,81.96,82.39,81.96c17.77,0,33.48-4.92,46.3-13.31-22.51-14.73-36.09-40.17-36.09-68.65Z"/>
  <path d="M335.93,193.46c-17.77,0-33.48,4.92-46.3,13.31,22.51,14.73,36.09,40.17,36.09,68.65s-13.58,53.92-36.09,68.65c12.82,8.39,28.53,13.31,46.3,13.31,48.96,0,82.39-37.26,82.39-81.96s-33.42-81.96-82.39-81.96Z"/>
  <path d="M290.59,172.84L226.29,27.44c-2.98-6.81-8.52-6.81-11.5,0l-64.29,145.4c-2.55,5.96,0,10.01,6.39,10.01h12.8c.71-29.39,23.35-49.35,50.46-49.35s49.76,19.96,50.46,49.35h13.58c6.39,0,8.94-4.04,6.39-10.01Z"/>
  <path d="M26.05,175.81c.5,4.58,3.41,7.04,8.43,7.04h40.02c47.69,0,80.26-36.19,80.26-79.83S122.19,23.18,74.5,23.18h-40.02c-5.32,0-8.27,2.76-8.49,7.88"/>
  <path d="M445.78,197.07l95.59,90.48c2.77,2.55,5.32,1.28,5.32-2.34v-85.37c0-2.77,1.49-4.26,4.26-4.26h8.09c2.77,0,4.26,1.49,4.26,4.26v146.89c0,5.54-2.98,8.52-8.52,8.52h-110.92c-5.54,0-8.52-2.98-8.52-8.52v-145.19c0-7.45,4.9-9.79,10.43-4.47Z"/>
</svg>